# Blender v2.78 (sub 0) OBJ File: ''
# www.blender.org
mtllib cone.mtl
o Cube.011_Cube.005
v 0.019172 0.368115 0.247836
v -0.021410 2.002783 -0.097312
v -0.110615 2.002783 0.118050
v -0.671127 0.368115 0.247836
v -0.630545 2.002783 -0.097312
v -0.814092 0.368115 -0.097314
v -0.325977 0.368115 0.390802
v -0.541339 2.002783 0.118050
v 0.162138 0.368115 -0.097314
v -0.110615 2.002783 -0.312672
v -0.325977 2.002783 0.207257
v 0.019173 0.368115 -0.442463
v -0.325977 2.002783 -0.401879
v -0.325977 0.368115 -0.585428
v -0.541339 2.002783 -0.312672
v -0.671127 0.368115 -0.442463
v -0.189316 1.990287 0.039349
v 0.050839 0.355618 -0.097314
v -0.059529 0.355618 0.169135
v -0.519245 1.990287 -0.097312
v -0.592426 0.355618 0.169135
v -0.702793 0.355618 -0.097314
v -0.462638 1.990287 0.039349
v -0.325977 0.355618 0.279502
v -0.132709 1.990287 -0.097312
v -0.059529 0.355618 -0.363762
v -0.325977 1.990287 0.095958
v -0.325977 1.990287 -0.290580
v -0.325977 0.355618 -0.474128
v -0.592425 0.355618 -0.363762
v -0.462638 1.990287 -0.233971
v -0.189316 1.990287 -0.233971
v 0.623578 0.109435 -0.097314
v 0.039711 0.109435 -0.463001
v 0.191184 0.109435 -0.097314
v -0.555879 2.667752 -0.097312
v -0.488542 2.667752 -0.259876
v -1.275532 0.109435 -0.097314
v -0.691665 0.109435 0.268374
v -0.843138 0.109435 -0.097314
v -0.325977 0.109435 0.852242
v 0.039711 0.109435 0.268374
v -0.325977 0.109435 0.419847
v -0.325977 0.109435 -1.046868
v -0.691665 0.109435 -0.463001
v -0.325977 0.109435 -0.614474
v 0.623578 0.109435 -1.046868
v -1.275532 0.109435 0.852242
v -0.325977 2.667752 -0.327213
v -0.163412 2.667752 -0.259876
v -1.275532 0.109435 -1.046868
v -0.325977 2.667752 0.132591
v 0.623578 0.109435 0.852242
v -0.325977 2.667752 -0.097312
v -0.096075 2.667752 -0.097312
v -0.163412 2.667752 0.065254
v -0.488542 2.667752 0.065254
v 0.623578 -0.002565 -0.097314
v -0.004003 0.016046 -0.419287
v 0.623578 -0.002565 -1.046868
v -0.429878 2.592518 -0.201212
v -1.275532 -0.002565 -0.097314
v -0.647951 0.016046 0.224662
v -1.275532 -0.002565 0.852242
v -0.325977 -0.002565 0.852242
v -0.004003 0.016046 0.224662
v 0.623578 -0.002565 0.852242
v -0.325977 -0.002565 -1.046868
v -0.647951 0.016046 -0.419287
v -1.275532 -0.002565 -1.046868
v -0.325977 2.592518 -0.244250
v -0.325977 2.592518 0.049628
v -0.325977 2.555752 -0.097312
v -0.222076 2.592518 -0.201212
v -0.179039 2.592518 -0.097312
v -0.222076 2.592518 0.006590
v -0.429878 2.592518 0.006590
v 0.129361 0.016046 -0.097314
v -0.781315 0.016046 -0.097314
v -0.325977 0.016046 0.358024
v -0.325977 0.016046 -0.552652
v -0.472916 2.592518 -0.097312
vt 0.4875 0.0617
vt 0.5550 0.4252
vt 0.5129 0.4274
vt 0.9943 0.0617
vt 0.8993 0.4252
vt 0.8993 0.0581
vt 0.7271 0.0581
vt 0.6850 0.4274
vt 0.6597 0.0617
vt 0.5550 0.0581
vt 0.6143 0.4274
vt 0.8222 0.0617
vt 0.7271 0.4252
vt 0.0040 0.4855
vt 0.0715 0.8490
vt 0.0294 0.8512
vt 0.0715 0.4819
vt 0.1308 0.8512
vt 0.8572 0.4274
vt 0.8318 0.0617
vt 0.5129 0.4274
vt 0.5550 0.0581
vt 0.4875 0.0617
vt 0.8993 0.4252
vt 0.9943 0.0617
vt 0.8993 0.0581
vt 0.6850 0.4274
vt 0.7271 0.0581
vt 0.6597 0.0617
vt 0.5550 0.4252
vt 0.6500 0.0617
vt 0.7271 0.4252
vt 0.8222 0.0617
vt 0.0040 0.4855
vt 0.0715 0.8490
vt 0.0715 0.4819
vt 0.1665 0.4855
vt 0.8572 0.4274
vt 0.8318 0.0617
vt 0.9586 0.4274
vt 0.6500 0.0617
vt 0.7864 0.4274
vt 0.1665 0.4855
vt 0.9586 0.4274
vt 0.6143 0.4274
vt 0.7864 0.4274
vt 0.0294 0.8512
vt 0.1308 0.8512
vt 0.2417 0.0000
vt 0.3348 0.1303
vt 0.2417 0.0965
vt 0.8993 0.5745
vt 0.8675 0.5762
vt 0.2417 0.4238
vt 0.1486 0.2935
vt 0.2417 0.3273
vt 0.0000 0.2119
vt 0.1486 0.1303
vt 0.1101 0.2119
vt 0.4835 0.2119
vt 0.3348 0.2935
vt 0.3734 0.2119
vt 0.4835 0.0000
vt 0.0000 0.4238
vt 0.0715 0.9983
vt 0.0397 1.0000
vt 0.4835 0.4238
vt 0.7271 0.5745
vt 0.0000 0.0000
vt 0.2262 0.4712
vt 0.2803 0.4908
vt 0.2486 0.5186
vt 0.2486 0.4238
vt 0.2039 0.4238
vt 0.1722 0.4516
vt 0.1722 0.4908
vt 0.2039 0.5186
vt 0.5550 0.5745
vt 0.6954 0.5762
vt 0.9441 0.5762
vt 0.5232 0.5762
vt 0.4835 0.0038
vt 1.0000 0.0038
vt 0.8993 0.0000
vt 0.7271 0.0000
vt 0.6556 0.0038
vt 0.5550 0.0000
vt 0.0000 0.4276
vt 0.1722 0.4276
vt 0.0715 0.4238
vt 0.8278 0.0038
vt 0.2417 0.0000
vt 0.3348 0.1303
vt 0.4835 0.0000
vt 0.8675 0.5762
vt 0.2417 0.4238
vt 0.1486 0.2935
vt 0.0000 0.4238
vt 0.0000 0.2119
vt 0.1486 0.1303
vt 0.0000 0.0000
vt 0.4835 0.2119
vt 0.3348 0.2935
vt 0.4835 0.4238
vt 0.0715 0.9983
vt 0.7271 0.5745
vt 0.2262 0.4712
vt 0.2803 0.4908
vt 0.2803 0.4516
vt 0.2486 0.4238
vt 0.2039 0.4238
vt 0.1722 0.4516
vt 0.2039 0.5186
vt 0.1722 0.4908
vt 0.5550 0.5745
vt 0.6954 0.5762
vt 0.9441 0.5762
vt 0.5550 0.0000
vt 0.4835 0.0038
vt 0.8993 0.0000
vt 1.0000 0.0038
vt 0.6556 0.0038
vt 0.7271 0.0000
vt 0.6556 0.0038
vt 0.8278 0.0038
vt 0.0715 0.4238
vt 0.0000 0.4276
vt 0.1722 0.4276
vt 0.8278 0.0038
vt 0.1163 1.0000
vt 0.7719 0.5762
vt 0.2803 0.4516
vt 0.5997 0.5762
vt 0.6556 0.0038
vt 0.8278 0.0038
vt 0.2417 0.0965
vt 0.8993 0.5745
vt 0.2417 0.3273
vt 0.1101 0.2119
vt 0.3734 0.2119
vt 0.1163 1.0000
vt 0.0397 1.0000
vt 0.7719 0.5762
vt 0.2486 0.5186
vt 0.5997 0.5762
vt 0.5232 0.5762
vn 0.9189 0.1032 0.3806
vn -0.9189 0.1032 0.3806
vn -0.3806 0.1032 0.9189
vn 0.9189 0.1032 -0.3806
vn 0.3806 0.1032 0.9189
vn 0.3806 0.1032 -0.9189
vn -0.3806 0.1032 -0.9189
vn -0.9189 0.1032 -0.3806
vn -0.9189 -0.1032 -0.3806
vn 0.9189 -0.1032 -0.3806
vn 0.3807 -0.1032 -0.9189
vn 0.3806 -0.1032 -0.9189
vn -0.9189 -0.1032 0.3806
vn -0.3807 -0.1032 -0.9189
vn -0.3806 -0.1032 -0.9189
vn -0.3806 -0.1032 0.9189
vn -0.3807 -0.1032 0.9189
vn 0.3807 -0.1032 0.9189
vn 0.3806 -0.1032 0.9189
vn 0.9189 -0.1032 0.3806
vn 0.0000 1.0000 0.0000
vn -0.0296 -0.9996 -0.0000
vn 0.9216 -0.0709 0.3817
vn 0.0296 -0.9996 -0.0000
vn 0.0000 -0.9996 -0.0296
vn 0.0000 -0.9996 0.0296
vn 0.3817 -0.0709 0.9216
vn 0.3817 -0.0709 0.9215
vn -0.3817 -0.0709 0.9215
vn -0.3817 -0.0709 0.9216
vn -0.3817 -0.0709 -0.9216
vn -0.3817 -0.0709 -0.9215
vn -0.1000 -0.9652 -0.2415
vn 0.2415 -0.9652 -0.1000
vn 0.2415 -0.9652 0.1000
vn -0.1000 -0.9652 0.2415
vn -0.9216 -0.0709 0.3817
vn 0.3817 -0.0709 -0.9216
vn 0.3817 -0.0709 -0.9215
vn 0.9216 -0.0709 -0.3817
vn -0.9216 -0.0709 -0.3817
vn -0.9035 -0.2089 -0.3742
vn 0.9035 -0.2089 -0.3742
vn 0.3742 -0.2089 -0.9035
vn -0.9035 -0.2089 0.3742
vn -0.3742 -0.2089 -0.9035
vn -0.3742 -0.2089 0.9035
vn 0.3742 -0.2089 0.9035
vn 0.9035 -0.2089 0.3742
vn -1.0000 0.0000 0.0000
vn 0.0000 0.0000 -1.0000
vn 1.0000 0.0000 0.0000
vn 0.0000 0.0000 1.0000
vn -0.0376 -0.9992 0.0156
vn 0.0376 -0.9992 -0.0156
vn -0.0156 -0.9992 -0.0376
vn 0.0156 -0.9992 0.0376
vn -0.0156 -0.9992 0.0376
vn 0.0156 -0.9992 -0.0376
vn 0.0376 -0.9992 0.0156
vn -0.0376 -0.9992 -0.0156
vn -0.2415 -0.9652 -0.1000
vn 0.1000 -0.9652 -0.2415
vn 0.1000 -0.9652 0.2415
vn -0.2415 -0.9652 0.1000
g white
usemtl white
s 1
f 1/1/1 2/2/1 3/3/1
f 4/4/2 5/5/2 6/6/2
f 7/7/3 8/8/3 4/9/3
f 9/10/4 10/11/4 2/2/4
f 1/12/5 11/13/5 7/7/5
f 12/14/6 13/15/6 10/16/6
f 14/17/7 15/18/7 13/15/7
f 6/6/8 15/19/8 16/20/8
f 17/21/9 18/22/9 19/23/9
f 20/24/10 21/25/10 22/26/10
f 23/27/11 24/28/12 21/29/12
f 25/30/13 26/31/13 18/22/13
f 27/32/14 19/33/15 24/28/15
f 26/34/16 28/35/17 29/36/16
f 28/35/18 30/37/19 29/36/19
f 31/38/20 22/26/20 30/39/20
f 1/1/1 9/10/1 2/2/1
f 4/4/2 8/40/2 5/5/2
f 7/7/3 11/13/3 8/8/3
f 9/10/4 12/41/4 10/11/4
f 1/12/5 3/42/5 11/13/5
f 12/14/6 14/17/6 13/15/6
f 14/17/7 16/43/7 15/18/7
f 6/6/8 5/5/8 15/19/8
f 17/21/9 25/30/9 18/22/9
f 20/24/10 23/44/10 21/25/10
f 23/27/11 27/32/11 24/28/12
f 25/30/13 32/45/13 26/31/13
f 27/32/14 17/46/14 19/33/15
f 26/34/16 32/47/17 28/35/17
f 28/35/18 31/48/18 30/37/19
f 31/38/20 20/24/20 22/26/20
g orange
usemtl orange
f 33/49/21 34/50/21 35/51/21
f 15/19/8 36/52/8 37/53/8
f 38/54/21 39/55/21 40/56/21
f 41/57/21 42/58/21 43/59/21
f 44/60/21 45/61/21 46/62/21
f 44/60/21 34/50/21 47/63/21
f 41/57/21 39/55/21 48/64/21
f 15/18/7 49/65/7 13/15/7
f 13/15/6 50/66/6 10/16/6
f 38/54/21 45/61/21 51/67/21
f 3/42/5 52/68/5 11/13/5
f 33/49/21 42/58/21 53/69/21
f 54/70/21 37/71/21 36/72/21
f 50/73/21 54/70/21 55/74/21
f 56/75/21 54/70/21 52/76/21
f 54/70/21 57/77/21 52/76/21
f 10/11/4 55/78/4 2/2/4
f 8/8/3 52/68/3 57/79/3
f 5/5/2 57/80/2 36/52/2
f 2/2/1 56/81/1 3/3/1
f 42/82/1 9/10/1 1/1/1
f 39/83/2 6/6/2 40/84/2
f 43/85/3 4/9/3 39/86/3
f 35/87/4 12/41/4 9/10/4
f 43/85/5 1/12/5 7/7/5
f 34/88/6 14/17/6 12/14/6
f 45/89/7 14/17/7 46/90/7
f 45/91/8 6/6/8 16/20/8
f 58/92/22 59/93/22 60/94/22
f 61/95/23 20/24/23 31/38/23
f 62/96/24 63/97/24 64/98/24
f 65/99/25 66/100/25 67/101/25
f 68/102/26 69/103/26 70/104/26
f 59/93/26 68/102/26 60/94/26
f 63/97/25 65/99/25 64/98/25
f 71/105/27 31/48/28 28/35/28
f 32/47/29 71/105/30 28/35/29
f 69/103/24 62/96/24 70/104/24
f 72/106/31 17/46/32 27/32/32
f 66/100/22 58/92/22 67/101/22
f 73/107/33 61/108/33 71/109/33
f 73/107/34 74/110/34 75/111/34
f 76/112/35 73/107/35 75/111/35
f 77/113/36 73/107/36 72/114/36
f 75/115/37 32/45/37 25/30/37
f 77/116/38 27/32/39 23/27/39
f 20/24/40 77/117/40 23/44/40
f 17/21/41 75/115/41 25/30/41
f 19/23/42 78/118/42 66/119/42
f 79/120/43 21/25/43 63/121/43
f 63/122/44 24/28/44 80/123/44
f 78/118/45 26/31/45 59/124/45
f 80/123/46 19/33/46 66/125/46
f 26/34/47 81/126/47 59/127/47
f 81/126/48 30/37/48 69/128/48
f 30/39/49 79/120/49 69/129/49
f 38/54/50 70/104/50 62/96/50
f 47/63/51 68/102/51 44/60/51
f 53/69/52 58/92/52 33/49/52
f 48/64/53 65/99/53 41/57/53
f 44/60/51 70/104/51 51/67/51
f 41/57/53 67/101/53 53/69/53
f 38/54/50 64/98/50 48/64/50
f 33/49/52 60/94/52 47/63/52
f 33/49/21 47/63/21 34/50/21
f 15/19/8 5/5/8 36/52/8
f 38/54/21 48/64/21 39/55/21
f 41/57/21 53/69/21 42/58/21
f 44/60/21 51/67/21 45/61/21
f 44/60/21 46/62/21 34/50/21
f 41/57/21 43/59/21 39/55/21
f 15/18/7 37/130/7 49/65/7
f 13/15/6 49/65/6 50/66/6
f 38/54/21 40/56/21 45/61/21
f 3/42/5 56/131/5 52/68/5
f 33/49/21 35/51/21 42/58/21
f 54/70/21 49/132/21 37/71/21
f 50/73/21 49/132/21 54/70/21
f 56/75/21 55/74/21 54/70/21
f 54/70/21 36/72/21 57/77/21
f 10/11/4 50/133/4 55/78/4
f 8/8/3 11/13/3 52/68/3
f 5/5/2 8/40/2 57/80/2
f 2/2/1 55/78/1 56/81/1
f 42/82/1 35/87/1 9/10/1
f 39/83/2 4/4/2 6/6/2
f 43/85/3 7/7/3 4/9/3
f 35/87/4 34/134/4 12/41/4
f 43/85/5 42/135/5 1/12/5
f 34/88/6 46/90/6 14/17/6
f 45/89/7 16/43/7 14/17/7
f 45/91/8 40/84/8 6/6/8
f 58/92/54 78/136/54 59/93/54
f 61/95/23 82/137/23 20/24/23
f 62/96/55 79/138/55 63/97/55
f 65/99/56 80/139/56 66/100/56
f 68/102/57 81/140/57 69/103/57
f 59/93/58 81/140/58 68/102/58
f 63/97/59 80/139/59 65/99/59
f 71/105/27 61/141/27 31/48/28
f 32/47/29 74/142/30 71/105/30
f 69/103/60 79/138/60 62/96/60
f 72/106/31 76/143/31 17/46/32
f 66/100/61 78/136/61 58/92/61
f 73/107/62 82/144/62 61/108/62
f 73/107/63 71/109/63 74/110/63
f 76/112/64 72/114/64 73/107/64
f 77/113/65 82/144/65 73/107/65
f 75/115/37 74/145/37 32/45/37
f 77/116/38 72/106/38 27/32/39
f 20/24/40 82/137/40 77/117/40
f 17/21/41 76/146/41 75/115/41
f 19/23/42 18/22/42 78/118/42
f 79/120/43 22/26/43 21/25/43
f 63/122/44 21/29/44 24/28/44
f 78/118/45 18/22/45 26/31/45
f 80/123/46 24/28/46 19/33/46
f 26/34/47 29/36/47 81/126/47
f 81/126/48 29/36/48 30/37/48
f 30/39/49 22/26/49 79/120/49
f 38/54/50 51/67/50 70/104/50
f 47/63/51 60/94/51 68/102/51
f 53/69/52 67/101/52 58/92/52
f 48/64/53 64/98/53 65/99/53
f 44/60/51 68/102/51 70/104/51
f 41/57/53 65/99/53 67/101/53
f 38/54/50 62/96/50 64/98/50
f 33/49/52 58/92/52 60/94/52
